<?xml version="1.0" encoding="UTF-8"?>
<!DOCTYPE svg PUBLIC "-//W3C//DTD SVG 1.1//EN" "http://www.w3.org/Graphics/SVG/1.1/DTD/svg11.dtd">
<!-- Creator: CorelDRAW X8 -->
<svg xmlns="http://www.w3.org/2000/svg" xml:space="preserve" width="11.6929in" height="8.26772in" version="1.1" style="shape-rendering:geometricPrecision; text-rendering:geometricPrecision; image-rendering:optimizeQuality; fill-rule:evenodd; clip-rule:evenodd"
viewBox="0 0 11693 8268"
 xmlns:xlink="http://www.w3.org/1999/xlink">
 <defs>
  <style type="text/css">
   <![CDATA[
    .fil3 {fill:#0172B2}
    .fil1 {fill:#6ECFD7}
    .fil2 {fill:#FEFEFE}
    .fil0 {fill:url(#id0)}
   ]]>
  </style>
  <radialGradient id="id0" gradientUnits="userSpaceOnUse" gradientTransform="matrix(1.00565 0.000505847 -0.000505847 1.00565 -31 -26)" cx="5918.57" cy="4133.86" r="1702.33" fx="5918.57" fy="4133.86">
   <stop offset="0" style="stop-opacity:1; stop-color:#CAEBEB"/>
   <stop offset="0.529412" style="stop-opacity:1; stop-color:#9CDDE1"/>
   <stop offset="1" style="stop-opacity:1; stop-color:#6ECFD7"/>
  </radialGradient>
 </defs>
 <g id="Layer_x0020_1">
  <metadata id="CorelCorpID_0Corel-Layer"/>
  <circle class="fil0" cx="5846" cy="4134" r="3606"/>
  <path class="fil1" d="M5846 195c2176,0 3939,1763 3939,3939 0,2175 -1763,3939 -3939,3939 -2175,0 -3939,-1764 -3939,-3939 0,-2176 1764,-3939 3939,-3939zm0 195c2068,0 3744,1676 3744,3744 0,2068 -1676,3744 -3744,3744 -2067,0 -3743,-1676 -3743,-3744 0,-2068 1676,-3744 3743,-3744z"/>
  <path class="fil2" d="M5846 372c2078,0 3763,1684 3763,3762 0,2078 -1685,3762 -3763,3762 -2077,0 -3762,-1684 -3762,-3762 0,-2078 1685,-3762 3762,-3762zm0 156c1992,0 3606,1615 3606,3606 0,1991 -1614,3605 -3606,3605 -1991,0 -3605,-1614 -3605,-3605 0,-1991 1614,-3606 3605,-3606z"/>
  <path class="fil2" d="M3252 3051l1511 0 0 -1512c0,-104 86,-190 190,-190l1787 0c104,0 190,86 190,190l0 1512 1511 0c105,0 190,85 190,190l0 1786c0,105 -85,190 -190,190l-1511 0 0 1512c0,104 -86,190 -190,190l-1787 0c-104,0 -190,-86 -190,-190l0 -1512 -1511 0c-105,0 -190,-85 -190,-190l0 -1786c0,-105 85,-190 190,-190z"/>
  <path class="fil3" d="M5777 2273c76,-20 112,-111 134,-187 -4,268 -72,184 40,394 53,100 -81,237 -131,304 -158,212 92,310 -48,578 -46,90 -61,79 -114,133 -64,153 342,767 404,997 58,213 19,229 25,422l755 -1c1,-51 -6,-83 -36,-111 -23,-22 -28,-17 -58,-30l-38 -17c-3,-2 -9,-6 -12,-8 -94,-52 -28,-610 -16,-725 13,-123 42,-217 60,-333 22,-141 12,-250 24,-390 25,-312 -61,-375 -198,-562 -46,-64 -141,-164 -90,-257 103,-186 48,-93 49,-336 42,60 55,120 139,128 56,-83 180,-358 49,-433 -28,-16 -179,-58 -227,-77 -101,-39 -453,-40 -549,-1 -60,25 -188,57 -225,77 -139,78 8,400 63,435z"/>
  <path class="fil3" d="M4871 5165c124,92 759,-26 919,40 -129,72 -463,39 -636,90 -272,80 -221,257 -135,278 65,15 87,-34 117,-63 127,-124 403,-73 619,-110 532,-92 189,-355 188,-355 152,-330 64,-541 -77,-820 -98,-194 -305,-495 -291,-751 56,-103 169,-119 172,-304 1,-96 -32,-106 -38,-196 -5,-82 3,-163 -4,-249 -64,26 -105,72 -156,94 -75,33 -125,-7 -218,-8 -90,-1 -146,37 -220,9 -60,-23 -86,-72 -166,-90 -6,140 10,220 -25,353 -29,112 -1,200 60,277 77,98 128,66 77,250 -31,109 -66,197 -93,300 -111,422 134,537 43,1007 -55,278 -138,83 -136,248z"/>
 </g>
</svg>
